<svg xmlns="http://www.w3.org/2000/svg" width="24.321" height="24.321" viewBox="0 0 24.321 24.321"><defs><style>.a{fill:#df6d45;}</style></defs><path class="a" d="M21.045,0H3.279A3.277,3.277,0,0,0,0,3.277V21.044a3.277,3.277,0,0,0,3.277,3.277h8.762l.015-8.691H9.8a.533.533,0,0,1-.533-.531l-.011-2.8a.533.533,0,0,1,.533-.535h2.254V9.056c0-3.141,1.919-4.852,4.721-4.852h2.3a.533.533,0,0,1,.533.533V7.1a.533.533,0,0,1-.532.533H17.651c-1.524,0-1.819.724-1.819,1.787v2.343h3.349a.533.533,0,0,1,.529.6l-.332,2.8a.533.533,0,0,1-.529.47h-3l-.015,8.691h5.214a3.277,3.277,0,0,0,3.277-3.277V3.277A3.277,3.277,0,0,0,21.045,0Z" transform="translate(-0.002)"/></svg>