<svg xmlns="http://www.w3.org/2000/svg" width="23.194" height="23.194" viewBox="0 0 23.194 23.194"><defs><style>.a{fill:#df6d45;}</style></defs><path class="a" d="M16.285,0H6.91A6.918,6.918,0,0,0,0,6.91v9.375a6.918,6.918,0,0,0,6.91,6.91h9.375a6.918,6.918,0,0,0,6.91-6.91V6.91A6.918,6.918,0,0,0,16.285,0Zm4.576,16.285a4.576,4.576,0,0,1-4.576,4.576H6.91a4.576,4.576,0,0,1-4.576-4.576V6.91A4.576,4.576,0,0,1,6.91,2.333h9.375A4.576,4.576,0,0,1,20.861,6.91v9.375Z"/><path class="a" d="M139,133a6,6,0,1,0,6,6A6.006,6.006,0,0,0,139,133Zm0,9.664A3.666,3.666,0,1,1,142.664,139,3.666,3.666,0,0,1,139,142.664Z" transform="translate(-127.402 -127.402)"/><circle class="a" cx="1.437" cy="1.437" r="1.437" transform="translate(16.17 4.206)"/></svg>