<svg xmlns="http://www.w3.org/2000/svg" width="280.716" height="47.508" viewBox="0 0 280.716 47.508">
  <g id="Group_4210" data-name="Group 4210" transform="translate(-385.9 -31.492)">
    <g id="Group_4211" data-name="Group 4211">
      <path id="Path_170" data-name="Path 170" d="M22.644-11.628A11.785,11.785,0,0,1,19.08-2.844,10.2,10.2,0,0,1,11.772.324,10.272,10.272,0,0,1,4.464-2.7,11.813,11.813,0,0,1,.9-11.628a11.668,11.668,0,0,1,3.564-8.748,10.255,10.255,0,0,1,7.308-3.132A10.336,10.336,0,0,1,19.08-20.52,11.7,11.7,0,0,1,22.644-11.628Zm-4.752,0q0-5.688-1.53-8.64a4.909,4.909,0,0,0-4.59-2.952,4.884,4.884,0,0,0-4.554,2.952q-1.53,2.952-1.53,8.64,0,5.616,1.53,8.622A4.88,4.88,0,0,0,11.772,0a4.927,4.927,0,0,0,4.554-3.006Q17.892-6.012,17.892-11.628Zm20.862,2.6h3.03a4.136,4.136,0,0,0,3.48-1.29,5.913,5.913,0,0,0,.84-3.54,5.875,5.875,0,0,0-1.11-3.87,4.219,4.219,0,0,0-3.42-1.32h-1.44a3.507,3.507,0,0,0-.93.09.51.51,0,0,0-.375.375,5.585,5.585,0,0,0-.075,1.155Zm0,.27v6.75a3.108,3.108,0,0,0,.12,1.11q.06.12.42.255A6.306,6.306,0,0,0,40.7-.42q1.05.09,2.88.09V0H30.624V-.33q1.53,0,2.535-.09a6.1,6.1,0,0,0,1.365-.225q.36-.135.42-.255a3.108,3.108,0,0,0,.12-1.11V-17.43a2.855,2.855,0,0,0-.12-1.05.684.684,0,0,0-.36-.24,14.7,14.7,0,0,0-3.96-.33v-.3h11.64A8.807,8.807,0,0,1,47.9-17.7a4.976,4.976,0,0,1,1.95,4.08,4.218,4.218,0,0,1-1.5,3.12,7.082,7.082,0,0,1-5.04,1.74Zm24.99-1.29v8.01a3.557,3.557,0,0,0,.09,1.05q.09.21.57.375a4,4,0,0,0,1.11.195q.63.03,2.25.03a6.476,6.476,0,0,0,5.175-2.025Q74.694-4.44,75.144-8.91h.36V0H56V-.33a12.039,12.039,0,0,0,3.54-.33.75.75,0,0,0,.4-.315,2.923,2.923,0,0,0,.105-1.035V-17.37a2.832,2.832,0,0,0-.12-1.08q-.06-.12-.39-.24a7.323,7.323,0,0,0-1.35-.24A18.783,18.783,0,0,0,56-19.05v-.3h18.51v7.5h-.36a8.933,8.933,0,0,0-1.17-4.41,4.843,4.843,0,0,0-4.41-2.79q-1.14,0-2.295.015a7.5,7.5,0,0,0-2.055.285.749.749,0,0,0-.375.315,3.06,3.06,0,0,0-.1,1.065v6.99q3.12,0,3.87-.63,1.14-.96,1.59-5.16h.33V-4.32H69.2q-.45-4.11-1.56-5.07Q66.864-10.05,63.744-10.05Zm36.24,4.11v-8.34q0-2.73-.93-3.75a4.438,4.438,0,0,0-3.36-1.02v-.3h8.49v.3a3.672,3.672,0,0,0-2.97,1.02,6.117,6.117,0,0,0-.84,3.75V.12h-.69L87.714-15.72l-.33-.39q-.09,0-.09.54v9.78q0,3.3.9,4.38t3.36,1.08V0h-8.73V-.33a4.243,4.243,0,0,0,3.21-.96q.87-.96.87-3.78v-10.2a3.707,3.707,0,0,0-.9-2.64,4.176,4.176,0,0,0-3.18-1.14v-.3H89l10.41,13.5q.39.51.48.51T99.984-5.94Zm32.8-6.624h3.348a6.348,6.348,0,0,0,3.888-.972,4.542,4.542,0,0,0,1.512-3.852q0-3.024-1.224-4.248t-4.14-1.224h-1.728a4.209,4.209,0,0,0-1.116.108.617.617,0,0,0-.45.468,7,7,0,0,0-.09,1.4ZM139.95,0H123.174V-.4a19.289,19.289,0,0,0,4.536-.288.933.933,0,0,0,.5-.414,3.562,3.562,0,0,0,.144-1.314V-20.88a3.576,3.576,0,0,0-.144-1.3q-.072-.144-.468-.288a16.159,16.159,0,0,0-4.572-.4v-.36H137.9a8.871,8.871,0,0,1,6.192,2.088,4.682,4.682,0,0,1,1.836,3.42,4.314,4.314,0,0,1-1.116,3.24q-1.476,1.476-5.58,2.088,4.32.54,6.336,2.484a5.381,5.381,0,0,1,1.656,4.068,5.172,5.172,0,0,1-1.872,3.78A7.533,7.533,0,0,1,139.95,0Zm-2.916-12.2h-4.248v9.792a4.411,4.411,0,0,0,.126,1.368.906.906,0,0,0,.54.45,3.543,3.543,0,0,0,1.08.2q.666.036,3.114.036a4.63,4.63,0,0,0,3.816-1.548,6.022,6.022,0,0,0,1.152-3.924,7.076,7.076,0,0,0-1.332-4.608A5.163,5.163,0,0,0,137.034-12.2ZM173.376-5.76a5.571,5.571,0,0,1-2.37,4.89,5.981,5.981,0,0,1-3.45,1.14,10.6,10.6,0,0,1-5.67-1.41,4.842,4.842,0,0,1-2.52-4.32V-17.37a2.98,2.98,0,0,0-.12-1.08.684.684,0,0,0-.36-.24,10.487,10.487,0,0,0-3.3-.36v-.3h11.58v.3a22.236,22.236,0,0,0-2.235.09,5.321,5.321,0,0,0-1.245.24q-.39.15-.45.27a2.55,2.55,0,0,0-.15,1.08V-6.06a7.737,7.737,0,0,0,.9,4.29q1.08,1.56,3.9,1.56a4.976,4.976,0,0,0,3.03-1.11,5.23,5.23,0,0,0,2.07-4.44v-7.83q0-3.09-.96-4.275a3.826,3.826,0,0,0-3.15-1.185v-.3h8.04v.3q-2.25,0-3,1.26a6.228,6.228,0,0,0-.54,3.03ZM194.826,0h-11.67V-.33q1.35,0,2.31-.09a5.9,5.9,0,0,0,1.32-.225q.36-.135.42-.255a2.958,2.958,0,0,0,.12-1.11V-17.37a2.98,2.98,0,0,0-.12-1.08q-.06-.12-.39-.24a12.186,12.186,0,0,0-3.66-.36v-.3h11.7a8.857,8.857,0,0,1,6.12,2.49,9.391,9.391,0,0,1,3.15,7.29,9.309,9.309,0,0,1-2.79,7.05A9.067,9.067,0,0,1,194.826,0Zm0-.33a4.424,4.424,0,0,0,4.155-2.31q1.305-2.31,1.305-6.93a14.63,14.63,0,0,0-1.32-6.84,4.47,4.47,0,0,0-4.14-2.64q-1.44,0-2.205.045a4.054,4.054,0,0,0-1.08.165.711.711,0,0,0-.42.345,3.513,3.513,0,0,0-.1,1.125V-2.01a3.859,3.859,0,0,0,.1,1.14.679.679,0,0,0,.4.39,4.474,4.474,0,0,0,1.29.135Q193.806-.33,194.826-.33Zm32.49.33h-.27a3.294,3.294,0,0,0-.375-1.755,1.1,1.1,0,0,0-.945-.585,2.513,2.513,0,0,0-1.71.6q-.33.3-.63.6A7.825,7.825,0,0,1,221.511,0a6.182,6.182,0,0,1-2.055.27,8.094,8.094,0,0,1-5.7-2.13q-2.79-2.55-2.79-7.38a10.49,10.49,0,0,1,3.06-7.74,7.64,7.64,0,0,1,5.37-2.61,7.062,7.062,0,0,1,3,.54,8.083,8.083,0,0,1,2.85,2.61l1.68-3.15v8.46h-.3a12.04,12.04,0,0,0-2.55-6.18,5.482,5.482,0,0,0-4.23-2.04A4.05,4.05,0,0,0,216.2-16.8a15.787,15.787,0,0,0-1.335,7.2,16.274,16.274,0,0,0,1.245,7.11Q217.356,0,219.546,0a4.44,4.44,0,0,0,3.18-1.08,4.135,4.135,0,0,0,1.14-3.15V-7.86a3.4,3.4,0,0,0-.09-1.02.658.658,0,0,0-.39-.33,5.343,5.343,0,0,0-1.215-.21q-.915-.09-1.575-.09v-.3h10.32v.3a14.155,14.155,0,0,0-1.65.12q-.99.12-1.335.18A.61.61,0,0,0,227.5-9a2.456,2.456,0,0,0-.18,1.14Zm17.46-10.05v8.01a3.557,3.557,0,0,0,.09,1.05q.09.21.57.375a4,4,0,0,0,1.11.195q.63.03,2.25.03a6.476,6.476,0,0,0,5.175-2.025q1.755-2.025,2.2-6.495h.36V0h-19.5V-.33a12.039,12.039,0,0,0,3.54-.33.75.75,0,0,0,.4-.315,2.923,2.923,0,0,0,.1-1.035V-17.37a2.832,2.832,0,0,0-.12-1.08q-.06-.12-.39-.24a7.323,7.323,0,0,0-1.35-.24,18.783,18.783,0,0,0-2.19-.12v-.3h18.51v7.5h-.36a8.933,8.933,0,0,0-1.17-4.41,4.843,4.843,0,0,0-4.41-2.79q-1.14,0-2.295.015a7.5,7.5,0,0,0-2.055.285.749.749,0,0,0-.375.315,3.059,3.059,0,0,0-.105,1.065v6.99q3.12,0,3.87-.63,1.14-.96,1.59-5.16h.33V-4.32h-.33q-.45-4.11-1.56-5.07Q247.9-10.05,244.776-10.05Zm36.84-9.3v8.55h-.42q-.69-4.89-2.19-6.72a4.381,4.381,0,0,0-3.63-1.53,1.714,1.714,0,0,0-.66.06q-.12.09-.12.78v16.2a3.109,3.109,0,0,0,.12,1.11q.06.12.42.255a6.166,6.166,0,0,0,1.38.225q1.02.09,2.76.09V0h-13.05V-.33q1.71,0,2.73-.09a6.166,6.166,0,0,0,1.38-.225.834.834,0,0,0,.465-.33,2.924,2.924,0,0,0,.1-1.035V-18.18q0-.78-.18-.84a3.392,3.392,0,0,0-.63-.03,4.35,4.35,0,0,0-3.57,1.5q-1.5,1.86-2.25,6.69h-.42v-8.49Z" transform="translate(385 55)" fill="#22264d"/>
      <path id="Path_171" data-name="Path 171" d="M11.115-15.4V-7.32L5.2-15.4H1.489V0H5.6V-8.357L11.718,0h3.509V-15.4ZM31.233-3.68V-5.985h5.058v-3.48H31.233v-2.267h5.63V-15.4H27.009V0h10.04V-3.68ZM54.839-15.4H48.283V0h4.252V-4.253h2.3a5.482,5.482,0,0,0,5.705-5.583A5.467,5.467,0,0,0,54.839-15.4Zm-.509,7.442h-1.8V-11.7h1.8a1.769,1.769,0,0,1,1.853,1.869A1.769,1.769,0,0,1,54.331-7.958ZM80.232,0H84.9L78.722-15.4H74.575L68.525,0h4.547l.853-2.5h5.459ZM78.348-5.821h-3.39l1.687-4.772ZM99.485-3.885V-15.4h-4.3V0h9.779V-3.885Z" transform="translate(473.411 79)" fill="#df6d45"/>
    </g>
  </g>
</svg>
