<svg xmlns="http://www.w3.org/2000/svg" width="281.352" height="252.206" viewBox="0 0 281.352 252.206"><defs><style>.a{fill:rgba(255,255,255,0.11);stroke:#df6d45;stroke-miterlimit:10;stroke-width:4px;}</style></defs><path class="a" d="M425.752,129.274v.952a1.321,1.321,0,0,1-.392.9,1.218,1.218,0,0,1-.9.392h-.056l-.056.056c-.056.112-.056.168-.112.28a.815.815,0,0,1-.336.5c-.056.056-.056.112-.112.112l-.112.112a1,1,0,0,1-.392.28,1.528,1.528,0,0,1,.392.728.946.946,0,0,1,.168.56v.28a1.743,1.743,0,0,1,.336.224,1.137,1.137,0,0,1,.672.672h0l.112.112a1.105,1.105,0,0,1,.336.784v.28a1.139,1.139,0,0,1-.336.84,1,1,0,0,1-.28.392l-.28.28a1,1,0,0,1-.392.28l-.056.056-.056.056h0a.87.87,0,0,1-.336.448l-.112.112a.055.055,0,0,1-.056.056.953.953,0,0,1,.056.392v.28a.946.946,0,0,1-.168.56,1.171,1.171,0,0,1-.392.728l-.112.112-.056.056-.224.168v.112a.832.832,0,0,1,.112.5v.392a1.1,1.1,0,0,1-.728,1.064l-.056.056-.056.056-.112.112a1.22,1.22,0,0,1-.448.28.782.782,0,0,1-.5.168.946.946,0,0,1-.56.168h-.112a1.055,1.055,0,0,1-.448.112.055.055,0,0,1-.056.056,1.988,1.988,0,0,1-.112.56v.28a.921.921,0,0,1,.112.56v.56a1.49,1.49,0,0,1-.168.672c-.056.112-.056.168-.112.28a1.219,1.219,0,0,1-.28.448h0l-.168.336v.112a2.268,2.268,0,0,1,.28.5.9.9,0,0,1,.224.392,1.128,1.128,0,0,1,.168.616v.28a1.017,1.017,0,0,1-.336.784l-.112.112h0a1,1,0,0,1-.28.392l-.168.112a1.055,1.055,0,0,1-.224.5v.448a1.988,1.988,0,0,1-.112.56v.112a1.128,1.128,0,0,1-.168.616,1.218,1.218,0,0,1-.28.448l-.28.28-.056.056-.056.056a.871.871,0,0,1-.336.448l-.112.112a.815.815,0,0,1-.5.336.946.946,0,0,1-.56.168l-.224.224a1,1,0,0,1-.392.28l-.056.056-.056.056-.168.336v.5a1.129,1.129,0,0,1-.168.616c0,.056,0,.056-.056.112a1.317,1.317,0,0,1,.112.448v.112a1.128,1.128,0,0,1-.168.616,1.218,1.218,0,0,1-.28.448c-.056.056-.056.168-.112.224,0,.056-.056.112-.056.168h0v.28a1.988,1.988,0,0,1-.112.56,1.017,1.017,0,0,1-.336.784l-.112.112-.056.056-.168.168a.772.772,0,0,1-.224.168c-.056.056-.112.168-.168.224l-.224.224-.056.056a1.007,1.007,0,0,1-.5.336.9.9,0,0,1-.5.168c-.056.056-.112.056-.168.112a.9.9,0,0,1-.5.168.2.2,0,0,0-.112.056,1,1,0,0,1-.392.28l-.056.056-.112.112c-.056.056-.112.112-.168.112l-.056.056a1,1,0,0,1-.28.392c-.056.112-.056.168-.112.224-.056.112-.056.168-.112.28s-.056.168-.112.28c0,.056-.056.112-.112.168,0,.112-.056.168-.056.224a1.219,1.219,0,0,1,.28.448,1.129,1.129,0,0,1,.168.616,1.017,1.017,0,0,1-.336.784h0c-.056.056-.056.168-.112.224a1.01,1.01,0,0,1-.672.672h0l-.056.056a1.162,1.162,0,0,1-.56.336v.392a1.017,1.017,0,0,1-.336.784l-.112.112a1.171,1.171,0,0,1-.336.224c-.056.056-.056.112-.112.168h0l.28.28a1.219,1.219,0,0,1,.28.448,1.051,1.051,0,0,1,.112,1.064,1.112,1.112,0,0,1-.9.672,1.129,1.129,0,0,1,.168.616v.28a1.1,1.1,0,0,1-.728,1.064,1.28,1.28,0,0,1-.392.56,1.219,1.219,0,0,1-.5.392,1.635,1.635,0,0,1-.5.112c-.056.056-.112.056-.112.112v.5a1.055,1.055,0,0,1-.112.448c.056.112.056.224.112.336a1.491,1.491,0,0,1,.168.672,1.307,1.307,0,0,1,.672.56,1.161,1.161,0,0,1,.56.336.815.815,0,0,1,.336.5.428.428,0,0,1,.112.28l.056.056a1.069,1.069,0,0,1,.448.168,1.144,1.144,0,0,1,.784,1.064v.112a.42.42,0,0,1-.056.28,1.219,1.219,0,0,1,.392.5h0a1.105,1.105,0,0,1,.336.784v.112a.83.83,0,0,1-.056.392,1,1,0,0,1,.392.28l.112.112c.056.056.112.112.112.168a1.247,1.247,0,0,1,.5.952v.56a1.123,1.123,0,0,1-1.12,1.12h-1.344a1.038,1.038,0,0,1-.392.112c-.056,0-.112.056-.168.056h0a1.219,1.219,0,0,1-.448.28.055.055,0,0,0-.056.056,1.158,1.158,0,0,1-.784.56.2.2,0,0,0-.056.112l-.056.056a.946.946,0,0,1-.168.56c0,.056-.056.112-.056.168v.5a1.139,1.139,0,0,1-.336.84.2.2,0,0,1-.056.112v.616a.71.71,0,0,1-.056.336,1.391,1.391,0,0,1,.056.448,1.25,1.25,0,0,1-.168.784c0,.056-.056.112-.112.168,0,.112-.056.168-.056.224h0a1.027,1.027,0,0,1,.392.56c.056.056.056.112.112.168a2.734,2.734,0,0,1,.392.168,1.219,1.219,0,0,1,.448.28l.392.392a1.277,1.277,0,0,1,.336.672c.056.056.056.112.112.168.056.112.112.168.112.28a.6.6,0,0,1,.168.392h0a1.171,1.171,0,0,1,.392.728,1.038,1.038,0,0,1,.112.392.946.946,0,0,1,.168.56v.112a1.1,1.1,0,0,1-.728,1.064.2.2,0,0,1-.112.056h0a1.116,1.116,0,0,1-.728.84.424.424,0,0,1-.224.112c-.056.056-.168.168-.224.168a1.22,1.22,0,0,1-.224.28v.224a1.491,1.491,0,0,1-.168.672,1.963,1.963,0,0,1-.28.448l-.28.28c-.056.056-.112.056-.168.112s-.056.112-.112.168h0a.9.9,0,0,1,.168.5.945.945,0,0,1,.168.56v.28a1.321,1.321,0,0,1-.392.9,1.218,1.218,0,0,1-.9.392h-.224a1.112,1.112,0,0,1-.056.616.2.2,0,0,1-.056.112,1.038,1.038,0,0,1-.112.392.5.5,0,0,1-.056.28c0,.112.056.168.056.28v1.12a1.989,1.989,0,0,1-.112.56v.112a1.306,1.306,0,0,1,0,1.12,1.168,1.168,0,0,1-.616.9c0,.056-.056.112-.112.168,0,.056-.056.112-.056.168v.28a1.254,1.254,0,0,1-.672,1.064v.168a1.655,1.655,0,0,1-.112.56v.112a1.321,1.321,0,0,1-.392.9l-.168.168a1.08,1.08,0,0,1,.168.56v.28a1.076,1.076,0,0,1-.224.672h0v.056a1.174,1.174,0,0,1,.224.616v.952a1.08,1.08,0,0,1-.168.56,1.037,1.037,0,0,1-.112.392v.56l.056.056.056.056.056.056.112.112.056.056a1.191,1.191,0,0,1,.392.84v.112a1.092,1.092,0,0,1-.784,1.064.055.055,0,0,0-.056.056,1.221,1.221,0,0,1-.224.28v.056a1.08,1.08,0,0,1-.168.56,1.905,1.905,0,0,1-.056.56c0,.056-.056.056-.056.112a1.989,1.989,0,0,1-.112.56.946.946,0,0,1-.168.56,1.1,1.1,0,0,1-.728.9,1.172,1.172,0,0,1-.336.224.055.055,0,0,1-.056.056,1.892,1.892,0,0,1-.336.672l-.28.28a.778.778,0,0,1-.56.28c0,.056-.056.056-.056.112a1.038,1.038,0,0,1-.112.392.5.5,0,0,1-.056.28c0,.112.056.168.056.28v.112c0,.056.056.112.056.168.056.056.056.112.112.224a.5.5,0,0,1,.28-.056h.28a1.321,1.321,0,0,1,.9.392l.056.056a1,1,0,0,1,.392.28l.112.112c.056.056.112.168.168.224s.168.112.224.168l.112.112a1.105,1.105,0,0,1,.336.784v.056h.056a1.148,1.148,0,0,1,1.064.728,1.124,1.124,0,0,1-.056.952v.28a1.064,1.064,0,0,1-.28.728.815.815,0,0,1,.336.5,1.128,1.128,0,0,1,.168.616v.28c0,.056.056.056.056.112h0l.056.056a1.218,1.218,0,0,1,.392.9v.112c0,.056.056.112.056.168a.893.893,0,0,1,.392.5c.056.056.112.112.112.168.056.056.112.056.168.112l.112.112a1.218,1.218,0,0,1,.28.448v.056h.224a1.129,1.129,0,0,1,.616.168c.056,0,.112.056.168.056a1.064,1.064,0,0,1,.728.28.994.994,0,0,1,.56.224c.056,0,.056,0,.112.056a1.318,1.318,0,0,1,.448-.112h.168a1.172,1.172,0,0,1,.336-.224,1.139,1.139,0,0,1,.84-.336h.28a1.321,1.321,0,0,1,.9.392l.616.616a1.219,1.219,0,0,1,.28.448,1.129,1.129,0,0,1,.168.616v.336c.056.112.168.224.168.336h0l.056.056a1.218,1.218,0,0,1,.392.9v.5c.056,0,.112.056.224.112h.112a1.321,1.321,0,0,1,.9.392.871.871,0,0,1,.336.448h0l.168.168a1,1,0,0,1,.392.28,1.018,1.018,0,0,1,.616.56c.112.056.224.168.336.224a.2.2,0,0,1,.112.056h1.344a1.989,1.989,0,0,1,.56.112,1.321,1.321,0,0,1,.9.392,1.218,1.218,0,0,1,.392.9v.112a1.321,1.321,0,0,1-.392.9l-.056.056-.112.112-.056.056c-.056.056-.112.112-.168.112l-.056.056a1,1,0,0,1-.28.392h0a.893.893,0,0,1-.392.5,1.171,1.171,0,0,1-.224.336v.224a1.136,1.136,0,0,1,.056.952c-.056.056-.056.168-.112.224,0,.056-.056.112-.056.168v.112c0,.056.056.056.056.112h0l.056.056a.87.87,0,0,1,.336.448h0l.112.112h0a.871.871,0,0,1,.448.336l.056.056.112.112.056.056a.055.055,0,0,1,.056.056.871.871,0,0,1,.448.336,1.171,1.171,0,0,1,.392.728.89.89,0,0,1,.448.56,4669.794,4669.794,0,0,0,.56.784,1.267,1.267,0,0,1-.056,1.008v.112a1.128,1.128,0,0,1-.168.616.9.9,0,0,1-.224.392.836.836,0,0,1-.168.392c-.056.112-.056.168-.112.28,0,.056-.056.112-.056.168v.168h0a.559.559,0,0,1,.224.28.774.774,0,0,1,.224.168,1,1,0,0,1,.392.28c.056,0,.056.056.112.056h.056a1.351,1.351,0,0,1,.952.392.774.774,0,0,1,.168.224l.168.168a1.312,1.312,0,0,1,.672.672.428.428,0,0,1,.112.28,1.678,1.678,0,0,1,.224.56h0a1.138,1.138,0,0,1,1.064,1.008.946.946,0,0,1,.168.56v.28a.92.92,0,0,1,.112.56v.9a1.017,1.017,0,0,1-.336.784l-.112.112-.056.056v.224a.42.42,0,0,1-.056.28l.056.056c.056.056.112.112.168.112a1.218,1.218,0,0,1,.392.9v.28a1.633,1.633,0,0,1-.112.5c.056.112.112.168.168.28a1.7,1.7,0,0,1,.28.392,1.139,1.139,0,0,1,.336.84v.392a1.988,1.988,0,0,1-.112.56v.392a.5.5,0,0,1-.056.28c0,.112.056.168.056.28,0,.056.056.056.056.112a1.139,1.139,0,0,1,.336.84.92.92,0,0,1,.112.56.206.206,0,0,1,.056.168.9.9,0,0,1,.168.5,1.038,1.038,0,0,1,.112.392.946.946,0,0,1,.168.56,54467.777,54467.777,0,0,0,.224,1.12v.672a1.989,1.989,0,0,1-.112.56v.392a1.989,1.989,0,0,1-.112.56.921.921,0,0,1,.112.56v.56a1.989,1.989,0,0,1-.112.56v.952a1.179,1.179,0,0,1-.28.728v.224a1.179,1.179,0,0,1-.28.728v.728a1.017,1.017,0,0,1-.336.784l-.112.112a2.731,2.731,0,0,1-.168.392,1.219,1.219,0,0,1-.28.448l-.28.28a.714.714,0,0,1-.336.224c0,.056-.056.112-.112.168a1.219,1.219,0,0,1-.28.448h0c0,.056-.056.056-.056.112a1.987,1.987,0,0,1-.112.56v1.344a1.128,1.128,0,0,1-.168.616,1.4,1.4,0,0,1-.224.392v.056a.921.921,0,0,1,.112.56v.28a1.988,1.988,0,0,1-.112.56v.392a1.989,1.989,0,0,1-.112.56v1.624a1.017,1.017,0,0,1-.336.784l-.112.112a2.426,2.426,0,0,0,.056.28v.112a1.2,1.2,0,0,1-.448.952,1.01,1.01,0,0,1-.672.672h0a1.105,1.105,0,0,1-.784.336h.056a.8.8,0,0,1-.336.112.2.2,0,0,1-.112.056c0,.056-.056.112-.056.168v.784a1.635,1.635,0,0,1-.112.5h0v.28a1.235,1.235,0,0,1-.336.84l-.112.112a.777.777,0,0,1-.56.28l.056.392a1.119,1.119,0,0,1-.112.728l-.168.336a1.112,1.112,0,0,1-.056.616.953.953,0,0,1,.056.392v.784a1.092,1.092,0,0,1-.784,1.064,1.244,1.244,0,0,1-.9.168,1.127,1.127,0,0,1-.616.5l-.056.056v.224a1.321,1.321,0,0,1-.392.9l-.056.056a.337.337,0,0,1,.056.224.946.946,0,0,1,.168.56,1.234,1.234,0,0,1-.336.84l-.28.28c-.056.056-.112.112-.168.112-.112.112-.168.224-.336.28v.056c.056.056.056.112.112.112a1.136,1.136,0,0,1,.056,1.12h0v.112a1.633,1.633,0,0,1-.112.5h0v.112a1.144,1.144,0,0,1-.784,1.064,1.372,1.372,0,0,1,.224.672v.112a.921.921,0,0,1,.112.56v.224l.056.056c.056.056.112.112.112.168a1.247,1.247,0,0,1,.5.952v.392a.946.946,0,0,1-.168.56v.056a1.191,1.191,0,0,1,.392.84v.28a1.321,1.321,0,0,1-.392.9l-.056.056-.056.056v.224a1.1,1.1,0,0,1-.952,1.12v.056a.946.946,0,0,1,.168.56v.28a1.988,1.988,0,0,1-.112.56v.784a1.129,1.129,0,0,1-.168.616.815.815,0,0,1-.336.5l-.112.112a1.007,1.007,0,0,1-.5.336c-.112.056-.168.112-.28.112a.206.206,0,0,1-.168.056.055.055,0,0,1-.056.056,1.78,1.78,0,0,1-.168.5.815.815,0,0,1-.336.5l-.112.112c-.056,0-.056.056-.056.112a1.979,1.979,0,0,1-.784.784c-.056,0-.056.056-.112.056l-.112.112h0v.168a1.321,1.321,0,0,1-.392.9,1.218,1.218,0,0,1-.9.392h-.112a1.99,1.99,0,0,1-.56-.112h-.168a.173.173,0,0,1-.056.112,1.079,1.079,0,0,1-1.008.952.946.946,0,0,1-.56.168h-.056a.87.87,0,0,1-.448.336,1.106,1.106,0,0,1-.616.336h0l-.112.112a.773.773,0,0,1-.224.168c-.056.056-.112.168-.168.224a.423.423,0,0,1-.056.224c0,.112.056.168.056.28v.112a1.338,1.338,0,0,1-.28.784h0a.946.946,0,0,1,.168.56v.28a1.321,1.321,0,0,1-.392.9,1.218,1.218,0,0,1-.9.392h-.28a.921.921,0,0,1-.56.112h-.112a.92.92,0,0,1-.56.112h-.28a.921.921,0,0,1-.56.112h-.952a1.084,1.084,0,0,1-.952-.56h-.224a1.017,1.017,0,0,1-.784-.336h0a1.312,1.312,0,0,1-.672-.672.428.428,0,0,1-.112-.28,1.174,1.174,0,0,1-.224-.616v-1.9l-.84-.224-1.68-.28a1.779,1.779,0,0,1-.5-.168l-1.344-.952c-.056-.056-.112-.056-.168-.112h0l-.112-.056-1.792-.952c-.056,0-.056-.056-.112-.056l-.56-.336h-.336a1.321,1.321,0,0,1-.9-.392,1.218,1.218,0,0,1-.392-.9v-.336a.719.719,0,0,1-.56-.224.815.815,0,0,1-.5-.336,1.218,1.218,0,0,1-.392-.9v-.112a1.129,1.129,0,0,1,.168-.616c.056-.112.056-.168.112-.28l-1.568-.112a1.15,1.15,0,0,1-1.008-.784,1.062,1.062,0,0,1,.392-1.232l.84-.672-.056-.112-.84-1.512a.889.889,0,0,1-.56.448l-2.3.84a1.174,1.174,0,0,1-.336.448h0a1.179,1.179,0,0,1,.28.728v.112a.946.946,0,0,1-.168.56,1.1,1.1,0,0,1-.728.9l-.84.336v.168a.206.206,0,0,1-.056.168l-.112.392a1.175,1.175,0,0,1-1.288.784l-2.407-.392a.206.206,0,0,1-.168-.056l-.392-.112a1.1,1.1,0,0,1-.728-1.344l.112-.392-.168-.056a.984.984,0,0,1-.5-.56l-.336-.224c-.056-.056-.112-.056-.112-.112l-.056-.056-.448-.28-1.568-.5a.87.87,0,0,1-.336.448c-.056.056-.112.112-.168.112a.559.559,0,0,1-.28.224.055.055,0,0,1-.056.056,1.322,1.322,0,0,1-.336.5.982.982,0,0,1-.28.224v.056a.71.71,0,0,1,.056.336v.112c0,.168-.056.28-.056.392a.953.953,0,0,1,.056.392v.28a.946.946,0,0,1-.168.56,1.038,1.038,0,0,1-.112.392v.84a1.092,1.092,0,0,1-.784,1.064.836.836,0,0,1-.392.168c0,.056-.056.056-.056.112a1.012,1.012,0,0,1-.784.9c-.112.056-.168.112-.28.168l-.392.112c-.056,0-.168.056-.224.056l-1.064.112a1.172,1.172,0,0,1-1.064-.448l-.448-.616v.056l-.28.56a1.2,1.2,0,0,1-1.512.56l-1.456-.672a1.283,1.283,0,0,1-.672-.84v-.336c0-.056-.056-.056-.056-.112a2.736,2.736,0,0,1-.392-.168,1.587,1.587,0,0,1-.616-.448h-.336l-.56-.112H357a1.017,1.017,0,0,1-.784-.336l-.616-.616h-.28v1.568a1.092,1.092,0,0,1-.784,1.064l-1.512.448a1.126,1.126,0,0,1-.448.224l-.9.28.112.728a1.033,1.033,0,0,1-.28.9,1.081,1.081,0,0,1-.84.392h-3.191a.921.921,0,0,1-.56.112h0l-.728.112a1.219,1.219,0,0,1-.28.448l-.168.168-.056.112a.964.964,0,0,1-.672.56,1.174,1.174,0,0,1-.616.224h-.112a1.989,1.989,0,0,1-.56-.112h-.952l-.728-.112a1.123,1.123,0,0,1-1.12-1.12v-.5l-.112-.056-1.288-.392c-.056,0-.112-.056-.168-.056l-.784-.392-1.568-.672a1.109,1.109,0,0,1-.616-.616l-.5-1.12a.2.2,0,0,0-.056-.112l-.392-.056a1.988,1.988,0,0,1-.56-.112,1.634,1.634,0,0,1-.5-.112l-2.407-1.232c-.056,0-.056-.056-.112-.056l-1.232-.224h-.112l-.784-.224h-.224a1.99,1.99,0,0,1-.56-.112h-.28a1.989,1.989,0,0,1-.56-.112h-.56a1.989,1.989,0,0,1-.56-.112h-.112a1.989,1.989,0,0,1-.56-.112h-.112a1.055,1.055,0,0,1-.448-.112c-.112.056-.224.056-.336.112a1.038,1.038,0,0,1-.392.112.206.206,0,0,1-.168.056,1.174,1.174,0,0,1-.616.224c-.056,0-.112.056-.168.056a.9.9,0,0,1-.5.168.946.946,0,0,1-.56.168c-.056,0-.056.056-.112.056l-.28.28a1.219,1.219,0,0,1-.448.28c-.056.056-.168.056-.224.112h0l-.056.056a.871.871,0,0,1-.448.336h0a1.105,1.105,0,0,1-.784.336h-1.624a.921.921,0,0,1-.56.112h-.56a.921.921,0,0,1-.56.112h-.84a1.635,1.635,0,0,1-.5.112H315.8l-.056.056c-.056.056-.056.112-.112.168l-.392.392c-.056.056-.112.056-.168.112l-.336.336a1.109,1.109,0,0,1-1.008.56h-.616l-.112.168c0,.056-.056.112-.112.168l-.224.28c0,.112-.056.168-.112.28l-.56.952c0,.056-.056.056-.056.112l-.168,1.008v.168a1.093,1.093,0,0,1-.056.392v.056l.5.952a1.1,1.1,0,0,1-.224,1.288l-1.344,1.344c-.056.056-.168.112-.224.168l-.952.56a1.08,1.08,0,0,1-.56.168,1.105,1.105,0,0,1-.784-.336l-.56-.56-.28-.168a1.174,1.174,0,0,1-.616-.224l-.9-.616-.168-.112a.559.559,0,0,1-.28-.224l-.448-.448-.28-.168-.56.224a1.254,1.254,0,0,1-1.008-.056l-.672-.392-.56-.392h-.056l-.392.112c-.112,0-.168.056-.28.056h-1.512l-.784-.112a1.173,1.173,0,0,1-.84-.616l-.112-.28a1.634,1.634,0,0,1-.112-.5v.727l-.056-.224a.83.83,0,0,1-.056-.392v-.392a1.989,1.989,0,0,1,.112-.56V323.32h-.056c-.056,0-.112-.056-.168-.056a.778.778,0,0,1-.616.112h-.336a1.1,1.1,0,0,1-.952-.5c-.056-.056-.168-.112-.224-.168h-.224a1.634,1.634,0,0,1-.5.112h-.224c-.056.056-.112.168-.168.224l-.112.112h0a1.307,1.307,0,0,1-.672.672,1.139,1.139,0,0,1-.84.336h-.28a1.106,1.106,0,0,1-1.008-.672c-.112-.056-.168-.112-.28-.168a1.1,1.1,0,0,1-.728-.5H289.6a.71.71,0,0,1-.056.336,1.084,1.084,0,0,1-.952.728l-1.288.112a.946.946,0,0,1-.56.168h-1.456a1.08,1.08,0,0,1-.56-.168.337.337,0,0,1-.224-.056l-.784-.28h-.056l-.672-.28a.055.055,0,0,1-.056-.056l-.28-.112c-.112-.056-.168-.112-.28-.168-.112,0-.168-.056-.28-.112l-.28-.112c-.056-.056-.168-.112-.224-.168l-.168-.056a.889.889,0,0,1-.56-.448l-.056-.056-.168-.056a1.127,1.127,0,0,1-.616-.5c-.056-.056-.168-.112-.224-.168l-.056-.056-.336-.224a.055.055,0,0,1-.056-.056l-.28-.224a.952.952,0,0,1-.56-.336.055.055,0,0,0-.056-.056.871.871,0,0,1-.448-.336l-.056-.056h0a6538.332,6538.332,0,0,0-.784-.56l-.112-.112-.056-.056-.056-.056-.28-.28-.112-.056a.2.2,0,0,1-.112-.056,1.964,1.964,0,0,1-.448-.28l-.168-.168a1.225,1.225,0,0,1-.56-.5l-.056-.056h0a1.962,1.962,0,0,1-.448-.28l-.112-.112a1.277,1.277,0,0,1-.336-.672,1.08,1.08,0,0,1-.168-.56v-.168a1.634,1.634,0,0,1-.112-.5v-.28a1.636,1.636,0,0,1-.112-.5v-.336l-.056-.224a.71.71,0,0,1-.056-.336v-.336l-.056-.224a.71.71,0,0,1-.056-.336v-.336l-.056-.224a.71.71,0,0,1-.056-.336l-.112-.392c0-.112-.056-.168-.056-.28v-.448a.921.921,0,0,1-.112-.56v-.28l-.112-.392V309.6l-.112-.952v-.224l-.112-.728v-.336a1.635,1.635,0,0,1-.112-.5h0a.206.206,0,0,1-.056-.168l-.336-1.232-.336-.56a1.08,1.08,0,0,1-.168-.56v-4.423a.71.71,0,0,1,.056-.336h-1.232l-.448-.056-.056.28-.112,1.176a1,1,0,0,1-.224.56l-.392.56c-.056.056-.056.112-.112.112l-.112.112-.84.952-.056.168a.559.559,0,0,1-.224.28l-.336.336-.224.336-.056.056-.336.392a2.271,2.271,0,0,1-.28.5l-.28.28-.336.616a1.018,1.018,0,0,1-.616.56l-1.456.5-.9.392a1.038,1.038,0,0,1-.392.112l-.616.224a1.9,1.9,0,0,1-.56.056l-.56-.112H261.1c0,.056-.056.056-.056.112l-.112.112a1.105,1.105,0,0,1-.784.336h-.84l-1.064-.224a1.179,1.179,0,0,1-.728.28h-.448c-.112,0-.224.056-.336,0h-.28l-.056.056a1.105,1.105,0,0,1-.784.336H255.5a.777.777,0,0,1-.616.112,1.318,1.318,0,0,1-.112.448l-.056.112-.112,1.008a1.656,1.656,0,0,1,.112.56v.392a1.123,1.123,0,0,1-1.12,1.12h-1.624a.921.921,0,0,1-.56.112H250.07a1.123,1.123,0,0,1-1.12-1.12v-.112a6.277,6.277,0,0,1,1.008-1.68,1.324,1.324,0,0,1,.616-.728v-.448a1.129,1.129,0,0,1,.168-.616c.056-.112.056-.168.112-.28,0-.056.056-.112.056-.168l.112-.28a.559.559,0,0,1,.224-.28l.224-.224a.952.952,0,0,1,.336-.56l.28-.28a1,1,0,0,1,.28-.392l.28-.28.056-.056a.871.871,0,0,1,.448-.336l.168-.168a.984.984,0,0,1,.28-.224l.28-.112a1.634,1.634,0,0,1,.5-.112h.056a1.179,1.179,0,0,1,.728-.28.921.921,0,0,1,.56-.112h.336a1.137,1.137,0,0,1,.952-.616l.224-.056c.056,0,.168-.056.224-.056s.056-.056.112-.056a1.751,1.751,0,0,1,.28-.56l.28-.28c.056-.056.112-.056.168-.112,0-.112.056-.168.112-.28a.889.889,0,0,1,.448-.56l.336-.224a1.45,1.45,0,0,1,.616-.392c.056-.056.056-.056.056-.112l.112-.112a1,1,0,0,1,.392-.28h0c0-.056.056-.056.056-.112a.982.982,0,0,1-.28-.224l-.056-.056-.112-.112a1.22,1.22,0,0,1-.28-.448,1.194,1.194,0,0,1-.168-.672V297.9a1.129,1.129,0,0,1,.168-.616c0-.056.056-.112.056-.168l.112-.224.112-.336a1.219,1.219,0,0,1,.28-.448h0l.056-.112a.055.055,0,0,1,.056-.056v-.224l-.056-.112a1.219,1.219,0,0,1-.28-.448.2.2,0,0,0-.056-.112l-.056-.112-.112-.112a2.371,2.371,0,0,1-.28-.392h0a1.22,1.22,0,0,1-.28-.448,1.129,1.129,0,0,1-.168-.616,1.234,1.234,0,0,1,.336-.84l.112-.112a1.171,1.171,0,0,1,.336-.224,1.25,1.25,0,0,1,.336-.728l.224-.224v-.224a1.179,1.179,0,0,1,.28-.728v-.224a1.094,1.094,0,0,1,.392-.84.2.2,0,0,0,.056-.112.87.87,0,0,1,.336-.448.815.815,0,0,1,.5-.336l.392-.112a1.963,1.963,0,0,1,.28-.448c0-.056.056-.112.056-.168a1.171,1.171,0,0,1,.392-.728.871.871,0,0,1,.448-.336c0-.112-.056-.168-.056-.28v-.168a.92.92,0,0,1-.112-.56v-.392a1.139,1.139,0,0,1,.336-.84.2.2,0,0,1,.056-.112v-.56c-.056-.056-.112-.168-.168-.224v-.056a4.888,4.888,0,0,0-1.344,1.12,1.22,1.22,0,0,1-1.232-.224h0a.894.894,0,0,1-.5-.392c-.056-.056-.112-.056-.168-.112l-.224-.224-.056-.056a1.191,1.191,0,0,1-.392-.84v-.784a.055.055,0,0,1-.056-.056c-.112,0-.168-.056-.28-.112a1.219,1.219,0,0,1-.448-.28l-.28-.28a1,1,0,0,1-.28-.392h0a1.105,1.105,0,0,1-.336-.784v-.168c-.056-.056-.056-.112-.056-.224l-.5.112h-.168c-.056,0-.112.056-.168.056a1.174,1.174,0,0,1-.616.224h-.56a1.08,1.08,0,0,1-.56-.168,1.779,1.779,0,0,1-.5-.168.9.9,0,0,1-.392-.224.952.952,0,0,1-.56-.336l-.28-.28-.112-.056a.2.2,0,0,1-.112-.056.815.815,0,0,1-.5-.336,1.484,1.484,0,0,1-.28-.336l-.056-.112a1,1,0,0,1-.28-.392l-.112-.112v.336a1.321,1.321,0,0,1-.392.9.871.871,0,0,1-.448.336h0l-.112.112c-.056.056-.112.056-.112.112a1.966,1.966,0,0,1-.28.448h0a7.166,7.166,0,0,1-1.064,1.064,1,1,0,0,1-.392.28h0l-.056.056a.773.773,0,0,1-.224.168,1.965,1.965,0,0,1-.28.448l-.28.28a.871.871,0,0,1-.336.448,1.007,1.007,0,0,1-.84.392h-.28a.946.946,0,0,1-.56-.168h-.448v.336a1.123,1.123,0,0,1-1.12,1.12h-.056a1.171,1.171,0,0,1-.728.392.206.206,0,0,1-.168.056.055.055,0,0,0-.056.056.5.5,0,0,1-.336.336,1.247,1.247,0,0,1-.952.5h-.112a.337.337,0,0,1-.224-.056,1.08,1.08,0,0,1-.56.168,1.092,1.092,0,0,1-1.064-.784,1.129,1.129,0,0,1-.168-.616v-.28a.92.92,0,0,1-.112-.56v-.448a1.223,1.223,0,0,1-.168-.28h-.28a.83.83,0,0,1-.392-.056h0l-.056.056a1.191,1.191,0,0,1-.84.392,1.656,1.656,0,0,1-.56.112h-.56a.946.946,0,0,1-.56-.168,1.243,1.243,0,0,1-.616-.28,2.494,2.494,0,0,0-.9.392c-.056.056-.112.056-.224.112-.056,0-.168.056-.224.056a1.751,1.751,0,0,1-.56.28,1.088,1.088,0,0,1-.9.448h-.336v.224a1.105,1.105,0,0,1-.784.336h-.056c-.056.056-.056.112-.112.112a1.191,1.191,0,0,1-.84.392v.056a1.368,1.368,0,0,1-.5.616,1.109,1.109,0,0,1-1.008.56h-.28a1.123,1.123,0,0,1-1.12-1.12v-.112a.5.5,0,0,1,.056-.28,2.435,2.435,0,0,1-.392-.224l-.112-.112c-.056-.056-.056-.112-.112-.168s-.112-.056-.168-.112l-.112-.112-.056-.056a.87.87,0,0,1-.336-.448,1.171,1.171,0,0,1-.224-.336h-.5c-.056,0-.112.056-.168.056a.782.782,0,0,1-.5.168.946.946,0,0,1-.56.168h-1.008a.2.2,0,0,0-.056.112,1.072,1.072,0,0,1-.9.952l-.168.168c-.056.056-.112.168-.224.168-.056.112-.168.168-.28.28-.056.056-.056.112-.112.168l-.112.112-.056.056a1.191,1.191,0,0,1-.84.392h-.112a.921.921,0,0,1-.56.112h-.56a1.99,1.99,0,0,1-.56-.112,1.338,1.338,0,0,1-.784-.28.8.8,0,0,1-.336-.112,1.171,1.171,0,0,1-.728-.392l-.112-.112a1.214,1.214,0,0,1-.616.56.936.936,0,0,1-.672.056,1.08,1.08,0,0,1-.56.168h-.392a1.017,1.017,0,0,1-.784-.336l-.112-.112a1.219,1.219,0,0,1-.28-.448V284.8h-.168a.773.773,0,0,1-.224.168,1.144,1.144,0,0,1-1.064.784h-.448a1.139,1.139,0,0,1-.84-.336c-.056,0-.056,0-.112-.056a1.1,1.1,0,0,1-.952.5h-.112a.842.842,0,0,1-.616-.224.815.815,0,0,1-.5-.336c-.056-.056-.112-.112-.112-.168l-.056-.056-.112-.112a.773.773,0,0,1-.168-.224h-.9a1.657,1.657,0,0,1-.56.112h-.112a1.113,1.113,0,0,1-1.12-1.064l-.056-.056a1.25,1.25,0,0,1-.336-.728,1.179,1.179,0,0,1-.28-.728V282a.809.809,0,0,1-.112-.392.055.055,0,0,1-.056-.056,1.219,1.219,0,0,1-.448-.28l-.28-.28a1.105,1.105,0,0,1-.336-.784v-.672a.831.831,0,0,1,.056-.392.953.953,0,0,1-.056-.392v-.28a.2.2,0,0,0-.112-.056c-.056,0-.056-.056-.112-.056a.71.71,0,0,1-.336-.056,1.029,1.029,0,0,1-.9-.112,1.123,1.123,0,0,1-1.12-1.12v-.28a1.016,1.016,0,0,1,.336-.784l.392-.336a.975.975,0,0,1,.448-.672,1.369,1.369,0,0,1,.5-.616,1.222,1.222,0,0,1,.224-.28l.056-.056.112-.112a1.313,1.313,0,0,1,.28-.56l.056-.056a.964.964,0,0,1-.56-.672.206.206,0,0,1-.056-.168l-.056.056a1.1,1.1,0,0,1-1.064.728h-.392a.946.946,0,0,1-.56-.168h-.112c-.112,0-.168.056-.28.056h-.112a1.491,1.491,0,0,1-.672-.168,1.425,1.425,0,0,1-.672-.616,1.171,1.171,0,0,1-.336-.224l-.112-.112a1.22,1.22,0,0,1-.28-.448,1.174,1.174,0,0,1-.224-.616v-.112a1.251,1.251,0,0,1,.56-1.008,1.069,1.069,0,0,1,.168-.448,1.947,1.947,0,0,1,1.344-.952.889.889,0,0,1,.448-.56,1.219,1.219,0,0,1,.28-.448l.168-.336v-.952h0a1.171,1.171,0,0,1-.728.392.946.946,0,0,1-.56.168h-.728a1.989,1.989,0,0,1-.56-.112h-.784a1.123,1.123,0,0,1-1.12-1.12,1.306,1.306,0,0,1-.9-.728.425.425,0,0,1-.112-.224,1,1,0,0,1-.392-.28l-.112-.112a1.105,1.105,0,0,1-.336-.784V263.3h-.224a1.1,1.1,0,0,1-1.064-.728h0a1.335,1.335,0,0,1-.336-.616,1.222,1.222,0,0,1-.28-.224h0a.8.8,0,0,1-.336-.112,1.171,1.171,0,0,1-.728-.392.815.815,0,0,1-.336-.5c-.056-.056-.056-.112-.112-.224a.811.811,0,0,1-.056-.616v-.224a.8.8,0,0,1-.112-.336h-1.176a.5.5,0,0,1-.28-.056,1.092,1.092,0,0,1-.728-.056c-.056,0-.056,0-.112-.056a1.129,1.129,0,0,1-.616-.168c-.056,0-.112-.056-.168-.112a1.78,1.78,0,0,1-.5-.168c-.112-.056-.168-.056-.28-.112s-.168-.056-.28-.112a.9.9,0,0,1-.392-.224,1.334,1.334,0,0,1-.616-.336c-.056-.056-.168-.056-.224-.112a.815.815,0,0,1-.5-.336l-.112-.112a.2.2,0,0,0-.112-.056c-.056,0-.056-.056-.112-.056h-.28a1.139,1.139,0,0,1-.84-.336.2.2,0,0,1-.112-.056h-.112a1.989,1.989,0,0,1-.56-.112h-.392a.946.946,0,0,1-.56-.168h-.392a1.035,1.035,0,0,0-.672,0h-.5a1.161,1.161,0,0,1-.336.56,1,1,0,0,1-.392.28v.168a1.094,1.094,0,0,1-.392.84v.224a1.016,1.016,0,0,1-.336.784l-.168.112a.772.772,0,0,1-.224.168v.112a1.016,1.016,0,0,1-.336.784l-.112.112-.056.056a.815.815,0,0,1-.5.336,1.174,1.174,0,0,1-.616.224h0a1.017,1.017,0,0,1-.784-.336l-.056-.056h-.168a1.139,1.139,0,0,1-.84-.336h-.056a1.317,1.317,0,0,1-.448.112h-.112a1.076,1.076,0,0,1-.672-.224c-.112-.056-.168-.056-.28-.112-.056,0-.112-.056-.168-.056h-.28a.921.921,0,0,1-.56.112h-1.736a.5.5,0,0,1-.28-.056c-.112,0-.168.056-.28.056h-.112a1.016,1.016,0,0,1-.784-.336l-.056-.056h-.336a1.139,1.139,0,0,1-.84-.336c-.056,0-.112-.056-.168-.056h-.672a.946.946,0,0,1-.56-.168h-.224a.206.206,0,0,1-.168.056,1.174,1.174,0,0,1-.616.224H166.2a1.461,1.461,0,0,1-.448.168,1,1,0,0,1-.28.392,1.176,1.176,0,0,1-.784.392.9.9,0,0,1-.392.224.2.2,0,0,0-.112.056l-.112.056c-.056.056-.056.112-.112.112l-.112.112a1.219,1.219,0,0,1-.448.28c-.056,0-.112.056-.168.056a1.211,1.211,0,0,1-.672.616,1.129,1.129,0,0,1-.616.168h-.28a1.338,1.338,0,0,1-.784-.28.952.952,0,0,1-.56-.336l-.28-.28-.056-.056c-.056-.056-.168-.112-.168-.224-.112-.056-.168-.168-.28-.28-.112-.056-.168-.168-.28-.28-.056-.056-.168-.112-.224-.168l-.056-.056-.112-.112-.056-.056a.559.559,0,0,1-.224-.28h-.616a1.337,1.337,0,0,1-.784-.28,1.066,1.066,0,0,1-.56-.28c-.168,0-.28-.112-.448-.168-.056,0-.112-.056-.168-.112a1.038,1.038,0,0,1-.392-.112,1.094,1.094,0,0,1-.84-.392l-.168-.168c-.168,0-.28-.112-.448-.168-.056,0-.112-.056-.168-.056h-.28a1.254,1.254,0,0,1-1.064-.672H152.6a1.234,1.234,0,0,1-.84-.336l-.112-.112a2.37,2.37,0,0,1-.28-.392,1.219,1.219,0,0,1-.28-.448.871.871,0,0,1-.448-.336.559.559,0,0,1-.224-.28h-.224a1.176,1.176,0,0,1-1.008-.56c-.056-.056-.168-.112-.224-.168l-.112-.112-.056-.056a1.218,1.218,0,0,1-.392-.9.946.946,0,0,1,.168-.56v-.672a1.128,1.128,0,0,1,.168-.616,1.173,1.173,0,0,1,.9-.784,1.246,1.246,0,0,1,1.232.672,1.751,1.751,0,0,1,.56.28h0a2.432,2.432,0,0,1,.392.224h0l.392.168a.559.559,0,0,1,.28.224l.112.056a.573.573,0,0,1,.336.28l.056.056a1,1,0,0,1,.392.28l.28.28c.056.056.112.112.112.168.056.056.168.112.224.168l.112.112.056.056.224.224h.056c.112,0,.168-.056.28-.056h.112a.92.92,0,0,1,.56-.112h.112a1.094,1.094,0,0,1,.84.392.871.871,0,0,1,.336.448c.056,0,.112.056.168.056h.112a1.634,1.634,0,0,1,.5.112l.168-.168.112-.112.056-.056a1.218,1.218,0,0,1,.9-.392h1.344a.206.206,0,0,1,.168-.056c0-.056.056-.056.056-.112V254.4a1.78,1.78,0,0,1,.168-.5,1.144,1.144,0,0,1,1.064-.784h.392a.71.71,0,0,1,.336.056.939.939,0,0,1,.336-.784,1.979,1.979,0,0,1,.784-.784h0a1,1,0,0,1,.392-.28h0a1.277,1.277,0,0,1,.672-.336,1.038,1.038,0,0,1,.392-.112.2.2,0,0,1,.112-.056v-.056a1.99,1.99,0,0,1,.112-.56v-.112a.842.842,0,0,1,.224-.616,1.009,1.009,0,0,1,.672-.672,1.139,1.139,0,0,1,.84-.336h.392a1.038,1.038,0,0,1,.392-.112c.056-.056.112-.056.168-.112a.424.424,0,0,1,.224-.112,1.334,1.334,0,0,1,.616-.336.2.2,0,0,1,.112-.056.893.893,0,0,1,.5-.392h0l.056-.056a.815.815,0,0,1,.5-.336.781.781,0,0,1,.5-.168.946.946,0,0,1,.56-.168h1.848a.921.921,0,0,1,.56-.112h.28a1.055,1.055,0,0,1,.448.112,1.318,1.318,0,0,1,.448-.112h.28a1.989,1.989,0,0,1,.56.112h.112c.056-.056.112-.168.168-.224h0a1,1,0,0,1,.28-.392l.28-.28.056-.056.056-.056.168-.168a1.171,1.171,0,0,1,.224-.336.8.8,0,0,1,.112-.336V244.1a.946.946,0,0,1,.168-.56.206.206,0,0,1,.056-.168,1.185,1.185,0,0,1-.112-1.064,1.093,1.093,0,0,1,.728-.672v-1.231a1.064,1.064,0,0,1,.28-.728v-.056a1.128,1.128,0,0,1,.168-.616,1.78,1.78,0,0,1-.5-.168,1.01,1.01,0,0,1-.672-.672,1.139,1.139,0,0,1-.336-.84v-1.008a1,1,0,0,1-.448-.392c-.056-.056-.112-.112-.168-.112a.424.424,0,0,1-.224-.112c-.112-.056-.168-.056-.28-.112a1.28,1.28,0,0,1-.56-.392,1.18,1.18,0,0,1-.728-.9.946.946,0,0,1-.168-.56v-.112a1.2,1.2,0,0,1,.448-.952,1.027,1.027,0,0,1,.56-.392c.056-.056.056-.112.112-.168,0-.056.056-.112.056-.168a1.779,1.779,0,0,1,.168-.5.9.9,0,0,1,.224-.392v-1.064c0-.056-.056-.056-.056-.112a1.317,1.317,0,0,1-.448-.112h-.224a.871.871,0,0,1-.448.336,1.219,1.219,0,0,1-.448.28,1.129,1.129,0,0,1-.616.168h-.392a.946.946,0,0,1-.56.168h-.28a1.064,1.064,0,0,1-.728-.28.9.9,0,0,1-.5-.168,1.038,1.038,0,0,1-.392-.112,1.1,1.1,0,0,1-.952-.5c-.056-.056-.168-.112-.224-.168s-.168-.112-.168-.224a1.247,1.247,0,0,1-.5-.952V228.2a1.321,1.321,0,0,1,.392-.9,1.218,1.218,0,0,1,.9-.392h.28a.921.921,0,0,1,.56-.112h1.008a.055.055,0,0,1,.056-.056,1.171,1.171,0,0,1,.224-.336,1.751,1.751,0,0,1,.28-.56.8.8,0,0,1,.112-.336v-.28a1.656,1.656,0,0,1,.112-.56,1.989,1.989,0,0,1,.112-.56,7.872,7.872,0,0,0,1.008-1.792l.28-.28a1.139,1.139,0,0,1,.84-.336h.112a1.084,1.084,0,0,1,.952.56h.448a.842.842,0,0,1,.616.224c.056,0,.112.056.168.056h.056v-.224a1.321,1.321,0,0,1,.392-.9v-.056a1.139,1.139,0,0,1,.336-.84.894.894,0,0,1,.392-.5.291.291,0,0,1,.112-.224,1.219,1.219,0,0,1,.28-.448,1,1,0,0,1,.28-.392c0-.056.056-.112.056-.168v-.056a3.854,3.854,0,0,1-.168-.448.8.8,0,0,1-.112-.336h-.728a1.321,1.321,0,0,1-.9-.392.055.055,0,0,1-.056-.056l-.112-.112-.056-.056-.056-.056a.871.871,0,0,1-.448-.336.055.055,0,0,1-.056-.056.953.953,0,0,1-.392.056h-.392a1.989,1.989,0,0,1-.56-.112,1.076,1.076,0,0,1-.672-.224,1.175,1.175,0,0,1-.728-.728.9.9,0,0,1-.168-.5c0-.056-.056-.112-.056-.168a1.194,1.194,0,0,1-.168-.672v-.784a1.125,1.125,0,0,1,.224-.728c0-.056-.056-.112-.056-.168h-1.344a1.989,1.989,0,0,1-.56-.112h-.56a1.989,1.989,0,0,1-.56-.112h-.112a1.129,1.129,0,0,1-.616-.168,1.75,1.75,0,0,1-.616-.5h-.5a.946.946,0,0,1-.56-.168,1.171,1.171,0,0,1-.728-.392.871.871,0,0,1-.336-.448h0l-.112-.112a2.426,2.426,0,0,0-.28.056H166.2a1.076,1.076,0,0,1-.672-.224,1.007,1.007,0,0,1-.5-.336.559.559,0,0,1-.224-.28.055.055,0,0,1-.056-.056c-.056,0-.112-.056-.168-.056h-.112a1.076,1.076,0,0,1-.672-.224l-.336-.168a.964.964,0,0,1-.672.56c-.112.056-.168.112-.28.112a.428.428,0,0,1-.28.112.782.782,0,0,1-.5.168,1.162,1.162,0,0,1-.336.56,1.191,1.191,0,0,1-.84.392h-.056a.9.9,0,0,1-.392.224,1.129,1.129,0,0,1-.616.168h-.672a.946.946,0,0,1-.56-.168.9.9,0,0,1-.5-.168c-.112-.056-.168-.056-.28-.112a1.007,1.007,0,0,1-.5-.336l-.056-.056-.168-.168c-.056,0-.112-.056-.168-.056a.9.9,0,0,1-.5-.168c-.112-.056-.168-.056-.28-.112a1.219,1.219,0,0,1-.448-.28h0a2.435,2.435,0,0,1-.392-.224l-.112-.112a1.036,1.036,0,0,1-.224-1.232c0-.056.056-.056.056-.112a1.129,1.129,0,0,1,.168-.616,1.007,1.007,0,0,1,.336-.5.055.055,0,0,1,.056-.056l.28-.28a.2.2,0,0,1,.112-.056,1.067,1.067,0,0,1,.28-.56c0-.056.056-.168.056-.224a1.093,1.093,0,0,1,.728-.672,1.485,1.485,0,0,1,.28-.336,1,1,0,0,1,.392-.28,1.076,1.076,0,0,1,.84-.616h0l.112-.112a1,1,0,0,1,.392-.28.823.823,0,0,1,.28-.336,1.635,1.635,0,0,1-.112-.5v-.392a.953.953,0,0,1,.056-.392,1.106,1.106,0,0,1-.336-.616,1.172,1.172,0,0,1-.224-.336,1.219,1.219,0,0,1-.28-.448.055.055,0,0,0-.056-.056,1.069,1.069,0,0,1-.448-.168,1.219,1.219,0,0,1-.448-.28l-.112-.112a1.139,1.139,0,0,1-.336-.84v-.056l-.056-.056a1.105,1.105,0,0,1-.336-.784.921.921,0,0,1-.112-.56.946.946,0,0,1,.168-.56c0-.112-.056-.224,0-.336v-.392a1.99,1.99,0,0,1,.112-.56,1.035,1.035,0,0,0,0-.672v-.112a1.491,1.491,0,0,1,.168-.672.424.424,0,0,1,.112-.224v-.56a1.338,1.338,0,0,1,.28-.784,1.751,1.751,0,0,1,.28-.56c0-.112-.056-.168-.056-.28V192.2a.921.921,0,0,1-.112-.56v-.392a1.169,1.169,0,0,1,.448-.9.8.8,0,0,1,.112-.336v-.28a1.989,1.989,0,0,1,.112-.56,1.174,1.174,0,0,1,.728-1.064c.056-.056.056-.112.112-.112l.056-.056v-.056a1.169,1.169,0,0,1,.448-.9,1.335,1.335,0,0,1,.336-.616l.112-.112h0a2.436,2.436,0,0,1,.224-.392l.28-.28.056-.056a1.98,1.98,0,0,0,.784-.784v-.224a1.321,1.321,0,0,1,.392-.9v-.224a1.139,1.139,0,0,1,.336-.84.424.424,0,0,1,.112-.224,1.219,1.219,0,0,1,.28-.448h0l.056-.112c0-.056.056-.056.056-.112.056-.112.056-.168.112-.28a1.964,1.964,0,0,1,.28-.448h0a1.137,1.137,0,0,1,.672-.672l.168-.168a1.162,1.162,0,0,1,.56-.336h0a1.344,1.344,0,0,1,.672-.392.9.9,0,0,1,.616-.28c.112-.056.28-.112.392-.168a.946.946,0,0,1,.56-.168h.056c.056-.056.112-.056.112-.112a1.128,1.128,0,0,1,.168-.616,1.814,1.814,0,0,1,1.176-1.008.206.206,0,0,1,.168-.056.2.2,0,0,0,.112-.056l.28-.112c.056,0,.056-.056.112-.056.056-.056.056-.112.112-.168l.28-.28c.056-.056.112-.112.168-.112.056-.112.168-.168.28-.28.056-.056.112-.168.224-.224a1,1,0,0,1,.392-.28c0-.056.056-.112.056-.168a.815.815,0,0,1,.336-.5,1.171,1.171,0,0,1,.728-.392,2.27,2.27,0,0,1,.28-.5l.168-.168a1.109,1.109,0,0,1,.616-.616,1.751,1.751,0,0,1,.28-.56h0a.871.871,0,0,1,.336-.448l.056-.056.112-.112a1,1,0,0,1,.392-.28h0a1.219,1.219,0,0,1,.448-.28l.392-.112a.83.83,0,0,1,.392-.056h.28a.8.8,0,0,1,.336-.112v-.112a1.99,1.99,0,0,1,.112-.56v-.392a1.016,1.016,0,0,1,.336-.784l.28-.28c.056-.056.112-.056.168-.112s.056-.112.112-.168l.112-.112.056-.056c.112-.112.168-.224.336-.28a.71.71,0,0,1-.056-.336,1.076,1.076,0,0,1,.224-.672.9.9,0,0,1,.224-.392,1.038,1.038,0,0,1,.392-.672.559.559,0,0,1,.28-.224l.112-.224a.559.559,0,0,1,.224-.28l.112-.112a2.372,2.372,0,0,1,.392-.28h0a1.219,1.219,0,0,1,.448-.28,1.194,1.194,0,0,1,.672-.168h.056l.112-.112a.871.871,0,0,1,.448-.336.2.2,0,0,1,.112-.056c.056-.056.056-.112.112-.112.056-.056.056-.112.112-.112l.056-.056.28-.28a1.105,1.105,0,0,1,.784-.336.921.921,0,0,1,.56-.112.809.809,0,0,1,.392-.112.206.206,0,0,1,.168-.056.744.744,0,0,1,.448-.168.055.055,0,0,1,.056-.056c0-.056.056-.112.056-.168a1.129,1.129,0,0,1,.168-.616,1.325,1.325,0,0,1,.728-.728,1.027,1.027,0,0,1,.56-.392.636.636,0,0,1,.448-.168c0-.056.056-.056.056-.112l.168-.168a1.18,1.18,0,0,1,.9-.728h.056a1.635,1.635,0,0,1,.5-.112h.616a1.179,1.179,0,0,1,.728-.28h.112a.921.921,0,0,1,.56-.112h.28a.921.921,0,0,1,.56-.112h.112a.921.921,0,0,1,.56-.112h.28a1.635,1.635,0,0,1,.5-.112h.56a1.4,1.4,0,0,0,.784,0h.952a.953.953,0,0,1,.392.056,1,1,0,0,1,.392-.28,1.114,1.114,0,0,1,.448-.672l.056-.056v-.056a1.338,1.338,0,0,1,.28-.784.8.8,0,0,1,.112-.336,1.526,1.526,0,0,1,.336-.672l.112-.112a1.17,1.17,0,0,1,.336-.224,1.2,1.2,0,0,1,1.12-1.064h.112a.953.953,0,0,1,.392.056l.168-.112a.055.055,0,0,0,.056-.056c0-.112-.056-.168-.056-.28v-.28a1.092,1.092,0,0,1,.784-1.064l.336-.168.112-.224a.559.559,0,0,1,.224-.28l.056-.056a1.635,1.635,0,0,1-.112-.5v-.28a1.129,1.129,0,0,1,.168-.616l.056-.112v-.616a1.055,1.055,0,0,1,.112-.448l-.056-.112a.83.83,0,0,1-.056-.392v-.112a1.635,1.635,0,0,1,.112-.5v-.056a1.016,1.016,0,0,1,.336-.784l.112-.112a1.219,1.219,0,0,1,.448-.28.055.055,0,0,0,.056-.056.653.653,0,0,1,.336-.336c.056-.056.056-.112.112-.168l.056-.056v-.168a1.016,1.016,0,0,1,.336-.784h0c0-.056.056-.056.056-.112a1.129,1.129,0,0,1,.168-.616l.112-.112v-.28a1.634,1.634,0,0,1,.112-.5v-.056a.8.8,0,0,1,.112-.336v-.056a1.892,1.892,0,0,1,.336-.672h0l.056-.112a.559.559,0,0,1,.224-.28l.056-.056v-.336a1.106,1.106,0,0,1,.672-1.008c-.056-.112-.168-.224-.168-.336a.9.9,0,0,1-.168-.5.946.946,0,0,1-.168-.56v-.56a1.08,1.08,0,0,1,.168-.56,1.038,1.038,0,0,1,.112-.392v-.112c0-.056-.056-.056-.056-.112a1.267,1.267,0,0,1,.056-1.008,1.243,1.243,0,0,1,.28-.616v-.056a.9.9,0,0,1-.28-.616.424.424,0,0,1-.224-.112,1.779,1.779,0,0,1-.5-.168c-.056,0-.112-.056-.168-.112a1.78,1.78,0,0,1-.5-.168c-.056,0-.112-.056-.168-.056h-.56a1.144,1.144,0,0,1-1.12-.9,1.338,1.338,0,0,1-.28-.784v-.392a1.321,1.321,0,0,1,.392-.9l.056-.056a.2.2,0,0,1,.056-.112v-.392a1.08,1.08,0,0,1,.168-.56l.168-.5c0-.056.056-.112.056-.168a1.779,1.779,0,0,1,.168-.5c0-.056.056-.112.056-.168h0a1.635,1.635,0,0,1,.112-.5h0v-.112a1.635,1.635,0,0,1,.112-.5v-.056a1.779,1.779,0,0,1,.168-.5c0-.056.056-.112.056-.168l.056-.056a1.038,1.038,0,0,1,.112-.392v-.28c0-.056-.056-.112-.056-.168a1.129,1.129,0,0,1-.168-.616v-.28a.921.921,0,0,1-.112-.56v-.56a1.08,1.08,0,0,1,.168-.56,1.006,1.006,0,0,1,.224-.5c0-.112-.056-.168-.056-.28a1.08,1.08,0,0,1-.168-.56v-1.064a1.064,1.064,0,0,1,.28-.728v-.336a.8.8,0,0,1-.112-.336.9.9,0,0,1-.28-.616v-.056a1.635,1.635,0,0,1-.112-.5.921.921,0,0,1-.112-.56v-.224a1.334,1.334,0,0,1-.616-.336l-.56-.56-.056-.056-.168-.168a2.426,2.426,0,0,0-.28.056h0a.832.832,0,0,1-.5.112h-.28a1.321,1.321,0,0,1-.9-.392.815.815,0,0,1-.336-.5.9.9,0,0,1-.168-.5v-.056a1.635,1.635,0,0,1-.112-.5v-.168c-.056-.112-.056-.168-.112-.28a.9.9,0,0,1-.224-.392.428.428,0,0,1-.112-.28c-.056-.112-.112-.168-.112-.28a1.2,1.2,0,0,1-.224-.672v-.168a.921.921,0,0,1-.112-.56v-.28a1.016,1.016,0,0,1,.336-.784l.112-.112a3.852,3.852,0,0,1-.168-.448.946.946,0,0,1-.168-.56v-.392a.842.842,0,0,1,.224-.616c.056-.112.112-.28.224-.336v-.392a.921.921,0,0,1-.112-.56V108a1.105,1.105,0,0,1,.336-.784l.112-.112a.773.773,0,0,1,.224-.168v-.224a.946.946,0,0,1,.168-.56v-.56a1.017,1.017,0,0,1,.336-.784l.28-.28.056-.056a1.161,1.161,0,0,1,.56-.336v-.112a1.338,1.338,0,0,1,.28-.784.8.8,0,0,1,.112-.336v-.9a1.139,1.139,0,0,1,.336-.84.871.871,0,0,1,.336-.448,1.218,1.218,0,0,1,.9-.392h.28a.921.921,0,0,1,.56-.112h.448c0-.056.056-.056.056-.112l.112-.112a.773.773,0,0,1,.224-.168,1.191,1.191,0,0,1,.392-.84.559.559,0,0,1,.28-.224l-.112-.112a1.105,1.105,0,0,1-.336-.784v-.56a1.016,1.016,0,0,1,.336-.784h0a.871.871,0,0,1,.336-.448.773.773,0,0,1,.224-.168h0a1.219,1.219,0,0,1-.28-.448,1.174,1.174,0,0,1-.224-.616v-.952a1.321,1.321,0,0,1,.392-.9,1.344,1.344,0,0,1,.672-.392h0a1.218,1.218,0,0,1,.9-.392h.28a.921.921,0,0,1,.56-.112h.392a1.064,1.064,0,0,1,.728.28.744.744,0,0,1,.448.168c.056,0,.112.056.168.056h.168a1.094,1.094,0,0,1,.84.392c.112.112.168.224.28.336h.056l.224.056h.336a1.129,1.129,0,0,1,.616.168,1.027,1.027,0,0,1,.56.392,1.244,1.244,0,0,1,.448.728.9.9,0,0,1,.224.392,1.2,1.2,0,0,1,.224.672v.224a1.016,1.016,0,0,1-.336.784l-.112.112c.056.056.112.168.168.224a.12.12,0,0,1,.112.112,1.635,1.635,0,0,1,.5-.112h.952a1.635,1.635,0,0,1,.5.112l.28.112h.056c.112,0,.168.056.28.056h0a1.2,1.2,0,0,1,.672-.224.921.921,0,0,1,.56-.112h.448l.056-.056.056-.056c.112-.112.224-.168.336-.28a.424.424,0,0,1,.112-.224,1.038,1.038,0,0,1,.112-.392,1.989,1.989,0,0,1,.112-.56v-.112a1.321,1.321,0,0,1,.392-.9c.056-.056.056-.112.112-.112a.871.871,0,0,1,.448-.336h0a1.219,1.219,0,0,1,.448-.28.9.9,0,0,1,.5-.168h.056a.2.2,0,0,0,.112-.056,1.129,1.129,0,0,1,.616-.168h.28c.056,0,.112-.056.168-.056.112-.056.168-.112.28-.168a.425.425,0,0,1,.224-.112h0a1.277,1.277,0,0,1,.672-.336l.056-.056a1.635,1.635,0,0,1,.5-.112h.952a1.989,1.989,0,0,1,.56.112h.784a1.055,1.055,0,0,1,.448.112,1.318,1.318,0,0,1,.448-.112h.56a1.989,1.989,0,0,1,.56.112.842.842,0,0,1,.616.224c.112.056.168.056.28.112.056,0,.112.056.168.056h1.232a1.635,1.635,0,0,1,.5.112l.28.112a.559.559,0,0,1,.28.224l.112.112c0,.056.056.056.056.112a1.038,1.038,0,0,1,.672.392c.056.056.112.056.112.112a.815.815,0,0,1,.336.5,1.128,1.128,0,0,1,.168.616v.112a1.989,1.989,0,0,1-.112.56v.056c.056.056.112.168.168.224h.336a1.129,1.129,0,0,1,.616.168,1.007,1.007,0,0,1,.5.336c.056.056.112.112.168.112l.112.112a1.044,1.044,0,0,1,.392.9v.112a1.094,1.094,0,0,1-.392.84.815.815,0,0,1-.5.336.428.428,0,0,1-.28.112c-.112.056-.168.112-.28.168a.055.055,0,0,0-.056.056c-.056.056-.056.112-.112.168v.224a1.989,1.989,0,0,1-.112.56v.112a1.129,1.129,0,0,1-.168.616,1.224,1.224,0,0,1-.168.28.42.42,0,0,1,.056.28c0,.056.056.112.056.168h0c.056,0,.056.056.112.056a.946.946,0,0,1,.56-.168h.28a1.656,1.656,0,0,1,.56-.112h.56a.842.842,0,0,1,.616.224,1.308,1.308,0,0,1,.672.56,1.106,1.106,0,0,1,.672,1.008v.056c.056,0,.112.056.168.112a1.322,1.322,0,0,1,.5.336c.056,0,.056-.056.112-.056a1.2,1.2,0,0,1,.672-.224.921.921,0,0,1,.56-.112h.28a1.094,1.094,0,0,1,.84.392l.056.056h0a.2.2,0,0,1,.112.056h.112a.946.946,0,0,1,.56-.168,1.08,1.08,0,0,1,.56.168,1.338,1.338,0,0,1,.784.28.909.909,0,0,1,.5.28h.112a1.179,1.179,0,0,1,.728-.28c.056-.056.168-.056.224-.112a.809.809,0,0,1,.392-.56c.056-.056.056-.112.112-.112.056-.056.056-.112.112-.168a1.218,1.218,0,0,1,.9-.392h1.232a.946.946,0,0,1,.56.168.809.809,0,0,1,.392.112h.112a1.139,1.139,0,0,1,.84.336.871.871,0,0,1,.448.336l.056.056.112.112a1.105,1.105,0,0,1,.336.784v.392a.419.419,0,0,1-.056.28l.168.168c.056.056.112.112.168.112l.056.056.28.28.056.056.168.168c.056,0,.112.056.168.056a1.254,1.254,0,0,1,1.064.672.809.809,0,0,1,.392.112h0a1.989,1.989,0,0,1,.56.112h.56a1.08,1.08,0,0,1,.56.168,22645.812,22645.812,0,0,1,.784.224.689.689,0,0,1,.56.28h.336a1.016,1.016,0,0,1,.784.336l.112.112a1.467,1.467,0,0,1,.28.5.772.772,0,0,1,.224.168l.112.112a2.37,2.37,0,0,1,.28.392h0l.056.056a1.191,1.191,0,0,1,.392.84v.28a1.99,1.99,0,0,1-.112.56v.28c.056,0,.112.056.168.112.112,0,.168.056.28.112s.28.112.336.224h.056a1.989,1.989,0,0,1,.56.112h.784a1.989,1.989,0,0,1,.56.112h.392a1.634,1.634,0,0,1,.5.112h.672a1.139,1.139,0,0,1,.84.336.425.425,0,0,1,.224.112,1.223,1.223,0,0,1,.28.168h0l.28-.28a1.105,1.105,0,0,1,.784-.336h1.456a1.989,1.989,0,0,1,.56.112h.056a.815.815,0,0,1,.5-.336,1.174,1.174,0,0,1,.616-.224h.112a1.321,1.321,0,0,1,.9.392.871.871,0,0,1,.336.448h0l.224.224h.616a1.657,1.657,0,0,1,.56-.112h.56a1.1,1.1,0,0,1,1.064.728c0,.056.056.056.056.112a.815.815,0,0,1,.336.5,1.128,1.128,0,0,1,.168.616c0,.056.056.056.056.112l.56.56a1.277,1.277,0,0,1,.336.672c.056,0,.168.056.224.056h.112a.842.842,0,0,1,.616.224c.056,0,.112.056.168.056h.056a1.779,1.779,0,0,1,.5.168c.112.056.168.056.28.112a1.219,1.219,0,0,1,.448.28l.112.112a.952.952,0,0,1,.56.336l.28.28.056.056a1.007,1.007,0,0,1,.392.84v.392a1.99,1.99,0,0,1-.112.56v.056a1.348,1.348,0,0,1,.336.448h0a1.219,1.219,0,0,1,.28.448c.056.112.112.168.112.28l.168.336a1.109,1.109,0,0,1,.56,1.008v.224a1.054,1.054,0,0,1,.448.112h.112a1.989,1.989,0,0,1,.56.112,1.1,1.1,0,0,1,1.064.728,1.139,1.139,0,0,1,.336.84v.784a.921.921,0,0,1,.112.56v1.064a1.657,1.657,0,0,1,.112.56v.112c0,.056.056.056.056.112.056.056.112.112.112.168.056.056.168.112.224.168h0a.946.946,0,0,1,.56.168,2.434,2.434,0,0,1,.392.224c.112,0,.168-.056.28-.056h1.456a1.139,1.139,0,0,1,.84.336c.056.056.168.056.224.112a1.007,1.007,0,0,1,.5.336h.056a.952.952,0,0,1,.56.336l.392.392a.772.772,0,0,1,.168.224h.112a1.08,1.08,0,0,1,.56.168,1.038,1.038,0,0,1,.392.112h.112a1.99,1.99,0,0,1,.56.112h.392a.921.921,0,0,1,.56-.112h.56a1.99,1.99,0,0,1,.56.112h.112a.71.71,0,0,1,.336.056c.056,0,.112-.056.168-.056a.946.946,0,0,1,.56-.168h1.176a.921.921,0,0,1,.56-.112H291a.921.921,0,0,1,.56-.112h.28a1.635,1.635,0,0,1,.5.112l.112-.112.224-.224a1.214,1.214,0,0,1,.56-.616.055.055,0,0,1,.056-.056,1.781,1.781,0,0,1,.168-.5,1.175,1.175,0,0,1,.728-.728.428.428,0,0,1,.28-.112c.112-.056.168-.112.28-.112a.782.782,0,0,1,.5-.168,1.08,1.08,0,0,1,.56-.168h.056c.056-.056.112-.056.168-.112s.112-.168.168-.224l.112-.112a1.22,1.22,0,0,1,.448-.28,1.174,1.174,0,0,1,.616-.224h.952a.946.946,0,0,1,.56.168.809.809,0,0,1,.392.112,1.779,1.779,0,0,1,.5.168c.056,0,.112.056.168.056h.112a1.08,1.08,0,0,1,.56.168.206.206,0,0,1,.168.056.71.71,0,0,1,.336-.056h.28a1.129,1.129,0,0,1,.616.168c.056,0,.112.056.168.056h.392a1.036,1.036,0,0,0,.672,0,1.016,1.016,0,0,1,.784.336l.112.112a1.105,1.105,0,0,1,.336.784v.28a1.171,1.171,0,0,1,.336.224h0c.056.056.168.056.224.112a1.219,1.219,0,0,1,.448.28l.112.112h.952a.809.809,0,0,1,.392-.112c.056-.056.112-.056.168-.112a1.194,1.194,0,0,1,.672-.168h.112a1.08,1.08,0,0,1,.56.168h.056a1.179,1.179,0,0,1,1.4-.112c.112.056.168.056.224.112a1.484,1.484,0,0,1,.28-.336l.056-.056.56-.56h0a1,1,0,0,1,.28-.392l.392-.392a.983.983,0,0,1,.28-.224l.112-.056a1.14,1.14,0,0,1,.84-.336h.28a.2.2,0,0,0,.112-.056.428.428,0,0,1,.28-.112,1.128,1.128,0,0,1,.616-.168h.56a1.317,1.317,0,0,1,.448-.112,1.179,1.179,0,0,1,.728-.28h.168a1.211,1.211,0,0,1,.672-.616,1.174,1.174,0,0,1,.616-.224h.168a1.106,1.106,0,0,1,1.008-.672h.112a1.321,1.321,0,0,1,.9.392.979.979,0,0,1,.784.392,1.191,1.191,0,0,1,.392.84v.112a.889.889,0,0,1,.448.56l.168.168a1.105,1.105,0,0,1,.336.784v.28a.842.842,0,0,1-.224.616,1.219,1.219,0,0,1-.28.448l-.168.168c.056,0,.112.056.168.056s.112.056.168.056l.28.168a.946.946,0,0,1,.56.168,1.038,1.038,0,0,1,.392.112h.224a.206.206,0,0,1,.168-.056c.112-.056.168-.112.28-.112a.424.424,0,0,1,.224-.112h0a1.219,1.219,0,0,1,.448-.28.055.055,0,0,0,.056-.056,1.433,1.433,0,0,1,.728-.56l.112-.112a1.029,1.029,0,0,0,.56-.56l.112-.112a1.25,1.25,0,0,1,.728-.336l.056-.056a1.277,1.277,0,0,1,.672-.336c.056,0,.112-.056.168-.056h0a1.219,1.219,0,0,1,.448-.28,1.051,1.051,0,0,1,1.064-.112,1.224,1.224,0,0,1,.28.168h0a1.046,1.046,0,0,1,1.12-.168.953.953,0,0,1,.392-.056h.56a1.989,1.989,0,0,1,.56.112h.28a1.179,1.179,0,0,1,.728.28,1.635,1.635,0,0,1,.5-.112h.112a1.656,1.656,0,0,1,.56-.112h.112a.83.83,0,0,1,.392.056c.112-.056.168-.112.28-.168.056-.056.056-.112.112-.112l.112-.112c.056-.056.112-.112.168-.112,0-.056.056-.056.112-.112a1.384,1.384,0,0,1,.224-.5v.784a1.129,1.129,0,0,1,.168-.616,1.219,1.219,0,0,1,.28-.448l.112-.112a1.277,1.277,0,0,1,.672-.336.946.946,0,0,1,.56-.168h.952a1.08,1.08,0,0,1,.56.168,1.779,1.779,0,0,1,.5.168,1.219,1.219,0,0,1,.448.28l.056.056h.616a1.058,1.058,0,0,1,1.008.616l.056.112.112.112a.714.714,0,0,1,.224.336,1.106,1.106,0,0,1,.672,1.008v.28a1.038,1.038,0,0,1,.112.392.946.946,0,0,1,.168.56v.056a1.318,1.318,0,0,1,.28.56,1.129,1.129,0,0,1,.168.616v.672a1.038,1.038,0,0,1,.392.112c.056,0,.056.056.112.056a1.779,1.779,0,0,1,.5.168,1.219,1.219,0,0,1,.448.28.173.173,0,0,1,.112.056c.112-.056.224-.168.336-.168.112-.056.168-.112.28-.112a.9.9,0,0,1,.5-.168.946.946,0,0,1,.56-.168h.056V130.9a1.017,1.017,0,0,1,.336-.784l.112-.112a1.219,1.219,0,0,1,.448-.28.427.427,0,0,1,.28-.112,1.129,1.129,0,0,1,.616-.168h.952a1.036,1.036,0,0,0,.672,0h.112a.809.809,0,0,1,.392-.112.946.946,0,0,1,.56-.168h.392a1.036,1.036,0,0,0,.672,0,1.08,1.08,0,0,1,.56.168,1.779,1.779,0,0,1,.5.168,1.144,1.144,0,0,1,.784,1.064v.672a1.017,1.017,0,0,1-.336.784l-.28.28h0c0,.056-.056.056-.056.112v.336h.56a1.179,1.179,0,0,1,.728-.28h1.064c.168,0,.28.056.392.056a.953.953,0,0,1,.392-.056h.56c.168,0,.28.056.392.056a.953.953,0,0,1,.392-.056h.28a54467.777,54467.777,0,0,0,1.12.224,1.129,1.129,0,0,1,.616.168.9.9,0,0,1,.392.224h.056l.056-.056a2.424,2.424,0,0,0-.056-.28v-.28a1.338,1.338,0,0,1,.28-.784.952.952,0,0,1,.336-.56l.112-.112h0a.893.893,0,0,1,.392-.5c.056-.112.056-.168.112-.28s.056-.168.112-.28a1.144,1.144,0,0,1,1.064-.784h.5a1.674,1.674,0,0,1,.224-.448.8.8,0,0,1,.112-.336,1.171,1.171,0,0,1,.392-.728l.056-.056h0a.87.87,0,0,1,.336-.448h0a.836.836,0,0,1,.168-.392.815.815,0,0,1,.336-.5,1.171,1.171,0,0,1,.728-.392.206.206,0,0,1,.168-.056c.056-.056.112-.056.168-.112a1.033,1.033,0,0,1-.224-.728v-.112a1.129,1.129,0,0,1,.168-.616c.056-.112.056-.168.112-.28,0-.056.056-.112.056-.168v-.112a1.338,1.338,0,0,1,.28-.784,1.038,1.038,0,0,1,.392-.672.8.8,0,0,1,.112-.336,1.094,1.094,0,0,1,.392-.84.815.815,0,0,1,.5-.336c.112-.056.168-.112.28-.112a.9.9,0,0,1,.5-.168c.056,0,.112-.056.168-.056a1.219,1.219,0,0,1,.448-.28.427.427,0,0,1,.28-.112c.112-.056.168-.112.28-.112.056-.056.112-.056.168-.112a1.327,1.327,0,0,1,.5-.84c.056-.056.112-.168.168-.224l.112-.112a.871.871,0,0,1,.448-.336l.168-.168a1.106,1.106,0,0,1,.784-.336h.112a.5.5,0,0,1,.28.056h.056a1.635,1.635,0,0,1-.112-.5v-.56a.946.946,0,0,1,.168-.56,1.78,1.78,0,0,1,.168-.5.9.9,0,0,1,.224-.392.952.952,0,0,1,.336-.56l.056-.056a1.15,1.15,0,0,1,1.12-1.064h.112a24207.263,24207.263,0,0,0,1.12.224.842.842,0,0,1,.616.224c.112.056.168.056.224.112a.71.71,0,0,1,.336-.056h.952a1.092,1.092,0,0,1,1.064.784,1.129,1.129,0,0,1,.168.616v.5a1.064,1.064,0,0,1,.28.728v.112a1.128,1.128,0,0,1-.168.616c-.056.056-.056.168-.112.224l.112.112a1.111,1.111,0,0,1,.336.728l.056.056.168.168a1.635,1.635,0,0,1,.5-.112h.28a1.99,1.99,0,0,1,.56.112.842.842,0,0,1,.616.224c.112.056.168.056.28.112a.425.425,0,0,1,.224.112h.336a.921.921,0,0,1,.56-.112h.112c.056,0,.056-.056.112-.056a1.219,1.219,0,0,1,.448-.28.427.427,0,0,1,.28-.112,1.129,1.129,0,0,1,.616-.168h.28a.921.921,0,0,1,.56-.112h.112a1.128,1.128,0,0,1,.616.168.71.71,0,0,1,.336-.056h.28a.921.921,0,0,1,.56-.112h.672a1.017,1.017,0,0,1,.784.336l.392.392.056.056a.773.773,0,0,1,.168.224c.056,0,.112.056.168.056h1.512a1.321,1.321,0,0,1,.9.392.815.815,0,0,1,.336.5.424.424,0,0,1,.112.224c.056.056.056.056.056.112l.056.056.112.112a1.218,1.218,0,0,1,.28.448c.056.112.112.168.112.28a.173.173,0,0,1,.056.112l.056.112a.2.2,0,0,1,.112.056,1.129,1.129,0,0,1,.616.168c.112.056.168.056.28.112.056,0,.112.056.168.056a1.055,1.055,0,0,1,.448.112c.112-.056.224-.056.336-.112a.2.2,0,0,0,.112-.056h0l.056-.056a.815.815,0,0,1,.5-.336c.056-.112.168-.168.28-.28a.893.893,0,0,1,.784-.448.946.946,0,0,1,.56-.168h1.9a1.171,1.171,0,0,1,.224-.336l.112-.112.056-.056a1.218,1.218,0,0,1,.9-.392h.672a1.656,1.656,0,0,1,.56.112h.112a1.106,1.106,0,0,1,1.008.672h.056a1.076,1.076,0,0,1,.672.224c.056,0,.112.056.168.056a1.038,1.038,0,0,1,.392.112,1.146,1.146,0,0,1,1.12,1.008.055.055,0,0,0,.056.056l.112-.112c.056-.056.112-.112.112-.168a1.218,1.218,0,0,1,.9-.392c.056,0,.112-.056.168-.056a1.129,1.129,0,0,1,.616-.168h.952a1.321,1.321,0,0,1,.9.392,1.347,1.347,0,0,1,.336.448c.056,0,.056.056.056.112a.815.815,0,0,1,.336.5,1.174,1.174,0,0,1,.224.616v.392c0,.056.056.056.056.112a.968.968,0,0,1,.056.56v.56H411.2c.056,0,.056-.056.112-.056l.056-.056a.055.055,0,0,1,.056-.056,1.979,1.979,0,0,1,.784-.784h0l.56-.56a1.105,1.105,0,0,1,.784-.336h1.232a1.017,1.017,0,0,1,.784.336h0a.2.2,0,0,1,.112.056h.112a1.128,1.128,0,0,1,.616.168c.056,0,.112.056.168.056a1.321,1.321,0,0,1,.9.392l.112.112c.056.056.112.056.112.112.056.056.112.112.168.112h0a.9.9,0,0,1,.5.168.809.809,0,0,1,.392.112,1.171,1.171,0,0,1,.728.392c.056.056.112.056.112.112h0a2.732,2.732,0,0,1,.392.168,1.007,1.007,0,0,1,.5.336l.112.112c.056.056.168.112.168.224.056.056.168.112.224.168h.336a1.179,1.179,0,0,1,.728.28h.616a1.017,1.017,0,0,1,.784.336l.112.112a1.219,1.219,0,0,1,.28.448,1.128,1.128,0,0,1,.168.616v.112C425.529,128.547,425.752,128.883,425.752,129.274Z" transform="translate(-146.4 -90.1)"/></svg>