<svg xmlns="http://www.w3.org/2000/svg" width="24.402" height="20.298" viewBox="0 0 24.402 20.298"><defs><style>.a{fill:#df6d45;}</style></defs><path class="a" d="M24.015,36.852a9.662,9.662,0,0,1-1.683.567,5.246,5.246,0,0,0,1.385-2.205h0a.275.275,0,0,0-.4-.32h0a9.709,9.709,0,0,1-2.572,1.063.655.655,0,0,1-.161.02.682.682,0,0,1-.45-.172,5.261,5.261,0,0,0-3.481-1.314,5.625,5.625,0,0,0-1.667.257,5.1,5.1,0,0,0-3.435,3.672,5.612,5.612,0,0,0-.125,1.937.188.188,0,0,1-.047.148.2.2,0,0,1-.145.066h-.019A13.8,13.8,0,0,1,1.731,35.5h0a.275.275,0,0,0-.451.035h0a5.267,5.267,0,0,0,.856,6.395,4.714,4.714,0,0,1-1.2-.465h0a.275.275,0,0,0-.409.237h0A5.268,5.268,0,0,0,3.6,46.561H3.488a4.734,4.734,0,0,1-.886-.085h0a.275.275,0,0,0-.314.354h0a5.273,5.273,0,0,0,4.165,3.586,9.708,9.708,0,0,1-5.437,1.651H.407a.4.4,0,0,0-.394.3.417.417,0,0,0,.2.46,14.44,14.44,0,0,0,7.256,1.956,14.638,14.638,0,0,0,6.2-1.315,13.692,13.692,0,0,0,4.537-3.4,14.9,14.9,0,0,0,2.778-4.653,14.7,14.7,0,0,0,.944-5.092v-.08a.9.9,0,0,1,.335-.7,10.4,10.4,0,0,0,2.092-2.3h0a.275.275,0,0,0-.34-.4Z" transform="translate(0 -34.491)"/></svg>